<mxfile host="app.diagrams.net" modified="2024-01-24T14:32:42.176Z" agent="Mozilla/5.0 (Windows NT 10.0; Win64; x64; rv:121.0) Gecko/20100101 Firefox/121.0" etag="CoulmDJF6B6rLXgzOP9M" version="23.0.1" type="github">
  <diagram name="Page-1" id="XSiF0hx4IgHmkkfNuI17">
    <mxGraphModel dx="1435" dy="553" grid="0" gridSize="10" guides="1" tooltips="1" connect="1" arrows="1" fold="1" page="0" pageScale="1" pageWidth="1169" pageHeight="1654" math="0" shadow="0">
      <root>
        <mxCell id="0" />
        <mxCell id="1" parent="0" />
        <mxCell id="qCsXi1OLU_8k1Kl-kYoM-2" value="ORGANIZATION STRUCTURE OF TOOL MAKING &amp;amp; TOOL ENGINEERING" style="text;html=1;strokeColor=none;fillColor=none;align=center;verticalAlign=middle;whiteSpace=wrap;rounded=0;" vertex="1" parent="1">
          <mxGeometry x="324" y="228" width="444" height="30" as="geometry" />
        </mxCell>
        <mxCell id="qCsXi1OLU_8k1Kl-kYoM-3" value="PT. SUMMIT ADYAWINSA INDONESIA" style="text;html=1;align=center;verticalAlign=middle;resizable=0;points=[];autosize=1;strokeColor=none;fillColor=none;" vertex="1" parent="1">
          <mxGeometry x="443" y="256" width="221" height="26" as="geometry" />
        </mxCell>
        <mxCell id="qCsXi1OLU_8k1Kl-kYoM-6" value="" style="rounded=0;whiteSpace=wrap;html=1;" vertex="1" parent="1">
          <mxGeometry x="508" y="348" width="112" height="60" as="geometry" />
        </mxCell>
        <mxCell id="qCsXi1OLU_8k1Kl-kYoM-7" value="" style="endArrow=none;html=1;rounded=0;" edge="1" parent="1">
          <mxGeometry width="50" height="50" relative="1" as="geometry">
            <mxPoint x="564" y="425" as="sourcePoint" />
            <mxPoint x="564" y="408" as="targetPoint" />
          </mxGeometry>
        </mxCell>
        <mxCell id="qCsXi1OLU_8k1Kl-kYoM-9" value="&lt;p style=&quot;line-height: 50%;&quot;&gt;&lt;/p&gt;&lt;div style=&quot;line-height: 40%;&quot; align=&quot;center&quot;&gt;&lt;font style=&quot;font-size: 12px;&quot;&gt;AMORN&lt;/font&gt;&lt;font style=&quot;font-size: 12px;&quot;&gt; KHEJORNJERM&lt;/font&gt;&lt;/div&gt;&lt;p&gt;&lt;/p&gt;" style="rounded=0;whiteSpace=wrap;html=1;" vertex="1" parent="1">
          <mxGeometry x="488" y="426" width="164" height="16" as="geometry" />
        </mxCell>
        <mxCell id="qCsXi1OLU_8k1Kl-kYoM-11" value="" style="endArrow=none;html=1;rounded=0;" edge="1" parent="1">
          <mxGeometry width="50" height="50" relative="1" as="geometry">
            <mxPoint x="563.41" y="512" as="sourcePoint" />
            <mxPoint x="563.41" y="442" as="targetPoint" />
          </mxGeometry>
        </mxCell>
        <mxCell id="qCsXi1OLU_8k1Kl-kYoM-12" value="" style="rounded=0;whiteSpace=wrap;html=1;" vertex="1" parent="1">
          <mxGeometry x="511" y="506" width="112" height="60" as="geometry" />
        </mxCell>
        <mxCell id="qCsXi1OLU_8k1Kl-kYoM-14" value="GUNAWAN EDHI WIBOWO" style="rounded=0;whiteSpace=wrap;html=1;" vertex="1" parent="1">
          <mxGeometry x="482" y="583" width="164" height="16" as="geometry" />
        </mxCell>
        <mxCell id="qCsXi1OLU_8k1Kl-kYoM-19" value="" style="endArrow=none;html=1;rounded=0;" edge="1" parent="1">
          <mxGeometry width="50" height="50" relative="1" as="geometry">
            <mxPoint x="563.41" y="645" as="sourcePoint" />
            <mxPoint x="563.41" y="599" as="targetPoint" />
          </mxGeometry>
        </mxCell>
        <mxCell id="qCsXi1OLU_8k1Kl-kYoM-24" value="" style="endArrow=none;html=1;rounded=0;" edge="1" parent="1">
          <mxGeometry width="50" height="50" relative="1" as="geometry">
            <mxPoint x="563" y="583" as="sourcePoint" />
            <mxPoint x="563.41" y="566" as="targetPoint" />
          </mxGeometry>
        </mxCell>
        <mxCell id="qCsXi1OLU_8k1Kl-kYoM-25" value="TOOL MAKING &amp;amp; TOOL ENGINEERING" style="rounded=0;whiteSpace=wrap;html=1;" vertex="1" parent="1">
          <mxGeometry x="495" y="645" width="141" height="34" as="geometry" />
        </mxCell>
        <mxCell id="qCsXi1OLU_8k1Kl-kYoM-28" value="" style="rounded=0;whiteSpace=wrap;html=1;" vertex="1" parent="1">
          <mxGeometry x="508.5" y="708" width="112" height="60" as="geometry" />
        </mxCell>
        <mxCell id="qCsXi1OLU_8k1Kl-kYoM-29" value="BUDI SETIAJI" style="rounded=0;whiteSpace=wrap;html=1;" vertex="1" parent="1">
          <mxGeometry x="483.5" y="792" width="164" height="16" as="geometry" />
        </mxCell>
        <mxCell id="qCsXi1OLU_8k1Kl-kYoM-32" value="" style="endArrow=none;html=1;rounded=0;" edge="1" parent="1">
          <mxGeometry width="50" height="50" relative="1" as="geometry">
            <mxPoint x="563" y="793" as="sourcePoint" />
            <mxPoint x="563.41" y="768" as="targetPoint" />
          </mxGeometry>
        </mxCell>
        <mxCell id="qCsXi1OLU_8k1Kl-kYoM-34" value="" style="endArrow=none;html=1;rounded=0;exitX=0.5;exitY=0;exitDx=0;exitDy=0;" edge="1" parent="1" source="qCsXi1OLU_8k1Kl-kYoM-28">
          <mxGeometry width="50" height="50" relative="1" as="geometry">
            <mxPoint x="514" y="729" as="sourcePoint" />
            <mxPoint x="564" y="679" as="targetPoint" />
          </mxGeometry>
        </mxCell>
        <mxCell id="qCsXi1OLU_8k1Kl-kYoM-35" value="" style="endArrow=none;html=1;rounded=0;" edge="1" parent="1">
          <mxGeometry width="50" height="50" relative="1" as="geometry">
            <mxPoint x="-40" y="1123" as="sourcePoint" />
            <mxPoint x="561" y="780" as="targetPoint" />
            <Array as="points">
              <mxPoint x="-44" y="780" />
              <mxPoint x="71" y="780" />
            </Array>
          </mxGeometry>
        </mxCell>
      </root>
    </mxGraphModel>
  </diagram>
</mxfile>
